<?xml version="1.0" encoding="UTF-8"?>
<svg xmlns="http://www.w3.org/2000/svg" xmlns:xlink="http://www.w3.org/1999/xlink" viewBox="0 0 64 64" width="64px" height="64px">
<g id="surface152019147">
<path style=" stroke:none;fill-rule:nonzero;fill:rgb(100%,100%,100%);fill-opacity:1;" d="M 32 58 C 17.664062 58 6 46.335938 6 32 C 6 17.664062 17.664062 6 32 6 C 46.335938 6 58 17.664062 58 32 C 58 46.335938 46.335938 58 32 58 Z M 32 8 C 18.765625 8 8 18.765625 8 32 C 8 45.234375 18.765625 56 32 56 C 45.234375 56 56 45.234375 56 32 C 56 18.765625 45.234375 8 32 8 Z M 32 8 "/>
<path style=" stroke:none;fill-rule:nonzero;fill:rgb(100%,100%,100%);fill-opacity:1;" d="M 34 49 L 34 34 L 39 34 L 40.03125 28 L 34 28.019531 L 34 23.929688 C 34 22.1875 33.890625 21 36.390625 21 L 40 21 L 40.003906 15.269531 C 39.160156 15.195312 37.730469 15.03125 35.492188 15.03125 C 30.816406 15.03125 28 17.847656 28 23.019531 L 28 28 L 22 28 L 22 34 L 28 34 L 28 49 Z M 34 49 "/>
</g>
</svg>
